<svg xmlns="http://www.w3.org/2000/svg" viewBox="0 0 1200 200" preserveAspectRatio="xMidYMax meet" aria-hidden="true">
  <title>generic valley skyline silhouette</title>
  <rect width="1200" height="200" fill="transparent"/>
  <path fill="rgba(16,18,20,0.88)" d="M0 200 L0 128 L25 124 L45 108 L65 118 L95 112 L120 92 L150 108 L185 98 L215 118 L255 95 L285 112 L320 102 L355 120 L395 98 L430 115 L470 105 L510 122 L555 100 L595 118 L640 108 L685 125 L730 108 L775 118 L820 105 L865 120 L910 112 L955 125 L1000 108 L1045 118 L1090 112 L1135 122 L1180 115 L1200 118 L1200 200 Z"/>
</svg>
